<?xml version="1.0" encoding="UTF-8"?>
<svg width="888px" height="209px" viewBox="0 0 888 209" version="1.1" xmlns="http://www.w3.org/2000/svg" xmlns:xlink="http://www.w3.org/1999/xlink">
    <!-- Generator: Sketch 52.2 (67145) - http://www.bohemiancoding.com/sketch -->
    <title>logo</title>
    <desc>Created with Sketch.</desc>
    <g id="Welcome" stroke="none" stroke-width="1" fill="none" fill-rule="evenodd">
        <g id="Desktop" transform="translate(-107.000000, -350.000000)">
            <g id="Group-5" transform="translate(107.000000, 309.000000)">
                <g id="logo">
                    <g transform="translate(0.000000, 43.000000)">
                        <g id="Group" transform="translate(0.000000, 83.000000)" fill="#DBDBDB">
                            <path d="M860.39264,1 L764,1 L764,92.7504 L789.25472,113.96768 C790.24064,114.54112 791.37824,114.8688 792.51584,114.8688 L880.64192,114.8688 C884.28224,114.8688 887.16416,111.67392 887.16416,107.82368 L887.16416,27.2144 C887.16416,24.67488 885.87488,22.38112 883.90304,21.0704 L860.39264,1 Z" id="Path"></path>
                            <path d="M96.46848,0.87232 L0.07584,0.87232 L0.07584,92.62272 L25.33056,113.84 C26.31648,114.41344 27.45408,114.74112 28.59168,114.74112 L116.71776,114.74112 C120.35808,114.74112 123.24,111.54624 123.24,107.696 L123.24,27.08672 C123.24,24.5472 121.95072,22.25344 119.97888,20.94272 L96.46848,0.87232 Z" id="Path"></path>
                        </g>
                        <g id="Group" transform="translate(760.000000, 70.000000)">
                            <polygon id="Path" fill="#A6A8AB" points="85.0626072 104.20224 0.227035429 104.20224 0.227035429 12.36992 11.6544853 0.08192 96.4143787 0.08192 96.4143787 91.91424"></polygon>
                            <rect id="Rectangle" fill="#FFFFFF" x="11.6544853" y="0.08192" width="84.7598933" height="91.7504"></rect>
                            <polygon id="Path" fill="#C4C4C4" points="11.6544853 0.08192 0.227035429 12.36992 0.227035429 104.20224 11.6544853 91.91424"></polygon>
                        </g>
                        <path d="M829.5,169 C826.478873,169 824,170.357576 824,171.545455 L824,172.393939 L824,179.606061 L824,180.454545 C824,181.642424 826.478873,183 829.5,183 C832.521127,183 835,181.642424 835,180.454545 L835,179.606061 L835,172.393939 L835,171.545455 C835,170.357576 832.521127,169 829.5,169 Z" id="Path" fill="#F68757"></path>
                        <path d="M780.5,169 C777.478873,169 775,170.357576 775,171.545455 L775,172.393939 L775,179.606061 L775,180.454545 C775,181.642424 777.478873,183 780.5,183 C783.521127,183 786,181.642424 786,180.454545 L786,179.606061 L786,172.393939 L786,171.545455 C786,170.357576 783.598592,169 780.5,169 Z" id="Path" fill="#E76BE4"></path>
                        <path d="M805.499116,169 C802.478475,169 800,170.357576 800,171.545455 L800,172.393939 L800,179.606061 L800,180.454545 C800,181.642424 802.478475,183 805.499116,183 C808.519758,183 810.998233,181.642424 810.998233,180.454545 L810.998233,179.606061 L810.998233,172.393939 L810.998233,171.545455 C811.075685,170.357576 808.59721,169 805.499116,169 Z" id="Path" fill="#46CD46"></path>
                        <path d="M197.5,20 C194.478873,20 192,21.3575758 192,22.5454545 L192,23.3939394 L192,30.6060606 L192,31.4545455 C192,32.6424242 194.478873,34 197.5,34 C200.521127,34 203,32.6424242 203,31.4545455 L203,30.6060606 L203,23.3939394 L203,22.5454545 C203,21.3575758 200.521127,20 197.5,20 Z" id="Path" fill="#F68757"></path>
                        <path d="M177.5,20 C174.478873,20 172,21.3575758 172,22.5454545 L172,23.3939394 L172,30.6060606 L172,31.4545455 C172,32.6424242 174.478873,34 177.5,34 C180.521127,34 183,32.6424242 183,31.4545455 L183,30.6060606 L183,23.3939394 L183,22.5454545 C183,21.3575758 180.521127,20 177.5,20 Z" id="Path" fill="#E76BE4"></path>
                        <path d="M158.499116,20 C155.478475,20 153,21.3575758 153,22.5454545 L153,23.3939394 L153,30.6060606 L153,31.4545455 C153,32.6424242 155.478475,34 158.499116,34 C161.519758,34 163.998233,32.6424242 163.998233,31.4545455 L163.998233,30.6060606 L163.998233,23.3939394 L163.998233,22.5454545 C164.075685,21.3575758 161.59721,20 158.499116,20 Z" id="Path" fill="#46CD46"></path>
                        <g id="Group" transform="translate(22.000000, 0.000000)" stroke="#A0A0A0" stroke-width="2">
                            <path d="M635.067234,147.217848 C698.74259,147.217848 807.553763,243.1216 807.553763,183.97536" id="Path"></path>
                            <path d="M634.841047,148.730034 C681.384701,148.730034 783.069073,237.87872 783.069073,183.97536" id="Path"></path>
                            <path d="M630.096609,148.34016 C656.324792,148.34016 758.584382,225.5088 758.584382,183.97536" id="Path"></path>
                            <path d="M0,75.2277387 C23.3476307,2.81045875 180.110294,-22.7485813 180.110294,22.6350987" id="Path"></path>
                            <path d="M26,75.187505 C41.9188391,8.66846501 153.729733,-16.562895 153.729733,22.512945" id="Path"></path>
                            <path d="M60,80.9392607 C60,32.6883807 139.518392,-7.53433927 139.518392,29.4115807" id="Path"></path>
                        </g>
                        <g id="Group" transform="translate(0.000000, 71.000000)">
                            <polygon id="Path" fill="#A6A8AB" points="84.9507812 104.34375 0.07578125 104.34375 0.07578125 12.3867187 11.4429687 0.08203125 96.39375 0.08203125 96.39375 92.0390625"></polygon>
                            <rect id="Rectangle" fill="#FFFFFF" x="11.4429687" y="0.08203125" width="84.875" height="91.875"></rect>
                            <polygon id="Path" fill="#C4C4C4" points="11.4429687 0.08203125 0.07578125 12.3867187 0.07578125 104.34375 11.4429687 92.0390625"></polygon>
                        </g>
                        <g id="Group" transform="translate(32.000000, 95.000000)">
                            <ellipse id="Oval" fill="#46CD46" cx="20.625" cy="23.0588235" rx="6.6" ry="7.24705882"></ellipse>
                            <path d="M14.4,0.329411765 L10.65,4.85882353 L4.125,4.85882353 C1.875,4.85882353 0,6.91764706 0,9.38823529 L0,36.7294118 C0,39.2 1.875,41.2588235 4.125,41.2588235 L37.2,41.2588235 C39.45,41.2588235 41.325,39.2 41.325,36.7294118 L41.325,9.38823529 C41.325,6.91764706 39.45,4.85882353 37.2,4.85882353 L30.675,4.85882353 L26.925,0.329411765 L14.4,0.329411765 Z M20.625,34.4235294 C14.925,34.4235294 10.275,29.3176471 10.275,23.0588235 C10.275,16.8 14.925,11.6941176 20.625,11.6941176 C26.325,11.6941176 30.975,16.8 30.975,23.0588235 C30.975,29.3176471 26.325,34.4235294 20.625,34.4235294 Z" id="Shape" fill="#F68757" fill-rule="nonzero"></path>
                        </g>
                    </g>
                    <g id="Group-3" transform="translate(314.000000, 0.000000)">
                        <path d="M154.427762,86.5167244 L17.3380774,86.5167244 L17.3380774,211.303096 L53.255359,240.159944 C54.6575352,240.939859 56.2754307,241.385524 57.8933263,241.385524 L183.226303,241.385524 C188.403569,241.385524 192.502237,237.040285 192.502237,231.803714 L192.502237,122.169973 C192.502237,118.716065 190.668622,115.596406 187.86427,113.813743 L154.427762,86.5167244 Z" id="Path" fill="#F4F5D8" transform="translate(104.920157, 163.951124) rotate(1.000000) translate(-104.920157, -163.951124) "></path>
                        <text id="一" fill="#F68757" font-family="DFWaWaTC-W5, Wawati TC" font-size="216" font-weight="normal" letter-spacing="-6.79324322">
                            <tspan x="0.396621609" y="229">一</tspan>
                        </text>
                    </g>
                    <g id="Group-2" transform="translate(143.000000, 25.000000)">
                        <path d="M139.089684,58 L2,58 L2,182.786371 L37.9172816,211.64322 C39.3194577,212.423134 40.9373533,212.8688 42.5552489,212.8688 L167.888225,212.8688 C173.065491,212.8688 177.16416,208.52356 177.16416,203.286989 L177.16416,93.6532489 C177.16416,90.1993404 175.330545,87.0796812 172.526193,85.2970187 L139.089684,58 Z" id="Path" fill="#F4F5D8" transform="translate(89.582080, 135.434400) rotate(1.000000) translate(-89.582080, -135.434400) "></path>
                        <g id="笑-3" transform="translate(1.000000, 0.000000)" fill="#F68757" font-family="DFWaWaTC-W5, Wawati TC" font-size="180" font-weight="normal" letter-spacing="-5.661036">
                            <g id="笑-2">
                                <g id="笑">
                                    <text>
                                        <tspan x="0.330518" y="191">笑</tspan>
                                    </text>
                                </g>
                            </g>
                        </g>
                    </g>
                    <g id="Group-4" transform="translate(517.000000, 34.000000)">
                        <path d="M138.427762,59.5167244 L1.33807745,59.5167244 L1.33807745,184.303096 L37.255359,213.159944 C38.6575352,213.939859 40.2754307,214.385524 41.8933263,214.385524 L167.226303,214.385524 C172.403569,214.385524 176.502237,210.040285 176.502237,204.803714 L176.502237,95.1699733 C176.502237,91.7160649 174.668622,88.5964056 171.86427,86.8137431 L138.427762,59.5167244 Z" id="Path" fill="#F4F5D8" transform="translate(88.920157, 136.951124) rotate(1.000000) translate(-88.920157, -136.951124) "></path>
                        <text id="笑" fill="#F68757" font-family="DFWaWaTC-W5, Wawati TC" font-size="180" font-weight="normal" letter-spacing="-5.661036">
                            <tspan x="3.330518" y="191">笑</tspan>
                        </text>
                    </g>
                    <g id="Group" transform="translate(792.000000, 139.000000)">
                        <ellipse id="Oval" fill="#F68757" cx="20.625" cy="23.0588235" rx="6.6" ry="7.24705882"></ellipse>
                        <path d="M14.4,0.329411765 L10.65,4.85882353 L4.125,4.85882353 C1.875,4.85882353 0,6.91764706 0,9.38823529 L0,36.7294118 C0,39.2 1.875,41.2588235 4.125,41.2588235 L37.2,41.2588235 C39.45,41.2588235 41.325,39.2 41.325,36.7294118 L41.325,9.38823529 C41.325,6.91764706 39.45,4.85882353 37.2,4.85882353 L30.675,4.85882353 L26.925,0.329411765 L14.4,0.329411765 Z M20.625,34.4235294 C14.925,34.4235294 10.275,29.3176471 10.275,23.0588235 C10.275,16.8 14.925,11.6941176 20.625,11.6941176 C26.325,11.6941176 30.975,16.8 30.975,23.0588235 C30.975,29.3176471 26.325,34.4235294 20.625,34.4235294 Z" id="Shape" fill="#46CD46" fill-rule="nonzero"></path>
                    </g>
                </g>
            </g>
        </g>
    </g>
</svg>